<svg id="svg" xmlns="http://www.w3.org/2000/svg" xmlns:xlink="http://www.w3.org/1999/xlink" width="400" height="266.63407479833785" viewBox="0, 0, 400,266.63407479833785"><g id="svgg"><path id="path0" d="M41.310 29.691 C 34.003 30.128,32.671 30.571,32.217 32.713 C 31.959 33.932,32.087 34.600,32.714 35.306 C 33.770 36.495,33.779 36.877,32.807 39.210 C 31.045 43.436,30.934 44.747,32.219 46.135 L 32.755 46.714 32.752 49.976 C 32.749 53.380,32.648 56.415,32.454 58.917 L 32.340 60.390 33.182 61.965 C 39.777 74.307,49.284 84.394,62.870 93.463 C 65.580 95.272,67.156 96.260,67.224 96.191 C 67.247 96.169,66.604 94.107,65.796 91.610 C 58.272 68.345,57.146 63.240,57.031 51.849 L 56.979 46.743 57.446 46.227 C 58.784 44.746,58.707 43.587,56.995 39.432 C 55.965 36.933,55.960 36.546,56.941 35.398 C 58.174 33.957,57.703 31.655,55.999 30.788 C 54.326 29.937,46.702 29.367,41.310 29.691 M154.727 65.510 C 116.051 67.238,87.907 95.888,87.901 133.541 C 87.894 172.697,118.497 201.882,158.836 201.190 C 178.417 200.854,192.593 195.638,206.174 183.771 C 207.604 182.521,212.369 177.891,212.369 177.751 C 212.369 177.664,193.631 159.241,193.495 159.195 C 193.443 159.177,192.927 159.576,192.349 160.082 C 181.226 169.815,172.605 173.748,160.886 174.439 C 137.158 175.838,119.025 157.931,119.044 133.121 C 119.066 106.146,141.307 87.637,167.147 93.090 C 175.329 94.816,182.858 98.803,191.031 105.735 C 191.798 106.385,192.463 106.918,192.509 106.918 C 192.582 106.918,211.181 86.107,211.347 85.839 C 211.619 85.399,204.716 79.665,200.684 76.982 C 188.192 68.667,172.385 64.722,154.727 65.510 M281.290 65.509 C 242.569 67.230,214.422 95.855,214.422 133.513 C 214.422 172.101,244.215 201.200,283.745 201.221 C 302.771 201.230,317.395 196.363,330.426 185.685 C 332.914 183.646,338.890 178.046,338.890 177.753 C 338.890 177.675,320.139 159.241,320.013 159.195 C 319.964 159.177,319.186 159.797,318.285 160.571 C 307.320 169.994,298.927 173.764,287.411 174.440 C 263.664 175.832,245.575 157.991,245.568 133.170 C 245.561 107.135,266.092 88.903,291.202 92.645 C 300.377 94.013,308.943 98.327,318.062 106.171 C 318.571 106.610,319.015 106.957,319.047 106.943 C 319.093 106.924,337.045 86.791,337.804 85.909 C 338.183 85.468,331.865 80.123,327.451 77.149 C 314.976 68.747,299.012 64.721,281.290 65.509 M353.654 133.366 L 353.654 200.831 368.516 200.831 L 383.378 200.831 383.378 133.366 L 383.378 65.901 368.516 65.901 L 353.654 65.901 353.654 133.366 M30.267 70.606 C 30.242 70.680,29.932 71.783,29.580 73.057 C 28.886 75.564,26.886 82.306,26.095 84.802 L 25.605 86.348 26.760 87.580 C 33.450 94.713,43.081 101.465,53.867 106.584 C 59.438 109.229,69.332 113.092,69.886 112.839 C 71.295 112.197,70.550 106.630,67.927 98.216 L 67.500 96.847 66.236 96.052 C 65.541 95.615,62.508 93.751,59.496 91.910 C 44.127 82.512,38.376 78.390,32.292 72.415 C 31.039 71.184,30.297 70.521,30.267 70.606 M22.508 95.991 C 20.482 102.318,19.457 106.156,19.457 107.420 C 19.457 107.691,19.836 107.986,22.391 109.699 C 33.165 116.926,45.971 121.788,62.430 124.900 C 64.827 125.353,72.058 126.619,72.248 126.619 C 72.640 126.619,71.523 118.013,70.774 115.269 L 70.572 114.526 69.923 114.203 C 65.672 112.088,61.440 110.239,50.941 105.909 C 37.704 100.450,31.181 97.319,25.210 93.558 C 24.368 93.027,23.661 92.593,23.638 92.593 C 23.615 92.593,23.107 94.122,22.508 95.991 M19.302 114.158 C 18.865 115.204,18.284 118.054,17.897 121.046 C 17.509 124.050,17.068 129.158,17.187 129.277 C 17.783 129.873,25.920 132.943,29.968 134.100 C 40.378 137.073,49.448 138.164,66.167 138.453 C 69.137 138.504,71.883 138.576,72.269 138.612 L 72.972 138.677 72.906 136.290 C 72.828 133.491,72.656 129.693,72.594 129.389 C 72.558 129.219,72.292 129.075,71.254 128.666 C 65.577 126.429,59.934 124.828,46.297 121.583 C 32.467 118.293,25.644 116.317,19.628 113.860 C 19.493 113.805,19.423 113.869,19.302 114.158 M16.817 138.738 C 16.817 143.843,17.011 146.603,17.397 146.989 C 17.458 147.050,17.401 147.154,17.240 147.281 C 16.794 147.632,16.527 148.721,16.664 149.633 L 16.728 150.063 18.948 150.608 C 32.369 153.903,44.776 154.065,64.874 151.208 C 68.516 150.691,72.509 150.183,72.939 150.183 C 73.297 150.183,72.976 147.759,72.565 147.349 C 72.321 147.106,72.312 147.068,72.426 146.726 C 72.692 145.927,73.051 141.839,72.871 141.671 C 72.689 141.501,68.581 140.533,66.087 140.072 C 60.670 139.072,56.008 138.563,43.168 137.569 C 30.261 136.570,24.119 135.856,18.393 134.688 C 17.727 134.553,17.100 134.441,17.000 134.441 C 16.825 134.441,16.817 134.612,16.817 138.738 M57.199 152.835 C 54.410 152.958,49.756 153.278,43.852 153.752 C 31.091 154.779,26.052 155.037,20.508 154.951 C 18.801 154.924,17.404 154.939,17.404 154.984 C 17.404 155.029,17.602 156.354,17.843 157.929 C 18.263 160.671,19.218 167.345,19.483 169.394 L 19.610 170.370 20.047 170.440 C 23.075 170.923,31.261 170.912,36.617 170.417 C 45.853 169.564,53.586 167.845,67.355 163.584 C 68.935 163.095,70.424 162.646,70.664 162.585 C 70.951 162.513,71.128 162.406,71.182 162.269 C 71.305 161.965,72.594 153.324,72.527 153.257 C 72.442 153.172,70.013 152.944,67.954 152.828 C 65.899 152.712,59.902 152.715,57.199 152.835 M69.665 165.015 C 69.504 165.035,68.646 165.141,67.758 165.249 C 66.871 165.356,65.210 165.598,64.068 165.785 C 59.032 166.611,55.658 167.353,42.386 170.556 C 33.285 172.753,28.014 173.835,22.717 174.594 L 20.186 174.957 20.449 177.359 C 20.951 181.941,21.413 187.725,21.413 189.425 L 21.413 190.106 23.051 190.041 C 36.878 189.487,50.313 185.656,67.124 177.474 L 69.374 176.379 69.652 174.012 C 69.805 172.710,70.123 170.215,70.358 168.467 C 70.594 166.720,70.788 165.213,70.788 165.119 C 70.790 164.944,70.454 164.913,69.665 165.015 M66.585 178.821 C 62.162 180.345,58.606 181.739,49.963 185.335 C 35.780 191.237,29.600 193.465,22.719 195.155 L 21.433 195.471 21.367 196.660 C 21.126 200.963,20.451 205.222,19.445 208.782 C 19.233 209.532,19.081 210.167,19.108 210.194 C 19.170 210.257,22.246 210.054,24.053 209.869 C 37.784 208.458,51.770 203.120,66.252 193.762 L 68.217 192.492 68.280 190.184 C 68.349 187.682,68.531 184.874,68.839 181.569 C 69.111 178.648,69.134 178.421,69.184 178.172 C 69.242 177.886,69.445 177.836,66.585 178.821 M67.172 193.713 C 66.715 193.986,65.329 194.811,64.092 195.547 C 62.855 196.283,59.335 198.426,56.270 200.309 C 42.472 208.785,36.316 212.093,29.430 214.735 C 25.593 216.206,19.971 217.820,17.391 218.189 L 16.938 218.254 16.830 219.100 C 16.288 223.333,16.621 227.759,17.664 230.163 L 17.904 230.718 18.950 230.680 C 36.142 230.066,52.724 223.326,68.682 210.466 C 69.486 209.819,70.188 209.258,70.243 209.221 C 70.307 209.177,70.198 208.569,69.935 207.510 C 68.922 203.430,68.256 198.097,68.249 194.011 C 68.247 193.047,68.277 193.055,67.172 193.713 M65.656 213.556 C 50.011 226.959,43.362 231.665,34.444 235.649 C 33.679 235.990,33.085 236.300,33.124 236.337 C 33.221 236.429,37.618 236.788,40.137 236.909 C 50.841 237.424,64.577 235.900,68.981 233.710 C 72.592 231.913,73.956 226.032,72.684 217.750 C 72.336 215.483,70.687 209.529,70.408 209.534 C 70.376 209.535,68.238 211.345,65.656 213.556 " stroke="none" fill-rule="evenodd"></path></g></svg>